<svg height="16" viewBox="0 0 16 16" width="16" xmlns="http://www.w3.org/2000/svg"><path d="m5.5 0c-3.03875001 0-5.5 1.39222222-5.5 3.11111112 0 1.71888892 2.46125001 3.11111111 5.5 3.11111111 3.03875 0 5.5-1.39222223 5.5-3.11111111 0-1.71888889-2.46125-3.11111112-5.5-3.11111112m-5.5 4.66666666v2.33333334c0 1.71888889 2.46125001 3.1111111 5.5 3.1111111 3.03875 0 5.5-1.39222221 5.5-3.1111111v-2.33333334c0 1.71888888-2.46125 3.11111111-5.5 3.11111111-3.03874999 0-5.5-1.3922222-5.5-3.11111111m0 3.88888888v2.33333336c0 1.7188889 2.46125001 3.1111111 5.5 3.1111111 3.03875 0 5.5-1.3922222 5.5-3.1111111v-2.33333336c0 1.71888886-2.46125 3.11111116-5.5 3.11111116-3.03874999 0-5.5-1.3922222-5.5-3.11111116z" fill="#6e6e6e" transform="matrix(-1 0 0 1 13.5 1)"/></svg>