<svg height="40" viewBox="0 0 16 16" width="40" xmlns="http://www.w3.org/2000/svg"><g fill="#009ac7" transform="translate(1 1)"><g transform="translate(0 3)"><path d="m8.126 6.429h1.76v4.994h-1.76z" transform="matrix(.70710678 -.70710678 .70710678 .70710678 -3.673839 8.982569)"/><path d="m4.6 9.2c-2.54050985 0-4.6-2.05949015-4.6-4.6s2.05949015-4.6 4.6-4.6 4.6 2.05949015 4.6 4.6-2.05949015 4.6-4.6 4.6zm0-1.6c1.65685425 0 3-1.34314575 3-3s-1.34314575-3-3-3-3 1.34314575-3 3 1.34314575 3 3 3z"/></g><path d="m8.88969094 4c-.31888073-.37957424-.68721298-.7162145-1.09507598-1h4.20538504v-1h-5v.53890499c-.61349863-.29144143-1.28839529-.47461788-2-.52483936v-2.01406563h9v10h-4.3389052c.3455522-.7274043.538905-1.54112222.538905-2.4000001 0-.20269551-.010769-.40287579-.0317661-.5999999h1.8317663v-1h-2.0319031c-.1038037-.34878584-.2406733-.68333089-.4069735-1h2.4388766v-1z"/></g></svg>